<?xml version="1.0" encoding="UTF-8" standalone="no"?>
<!DOCTYPE svg PUBLIC "-//W3C//DTD SVG 1.1//EN" "http://www.w3.org/Graphics/SVG/1.1/DTD/svg11.dtd">
<svg width="100%" height="100%" viewBox="0 0 1087 1087" version="1.1" xmlns="http://www.w3.org/2000/svg" xmlns:xlink="http://www.w3.org/1999/xlink" xml:space="preserve" xmlns:serif="http://www.serif.com/" style="fill-rule:evenodd;clip-rule:evenodd;stroke-linecap:round;stroke-linejoin:round;stroke-miterlimit:1.5;">
    <g transform="matrix(1,0,0,1,-47.5383,-47.5383)">
        <g>
            <g transform="matrix(1.47887,0,0,1.51761,-243.563,-292.474)">
                <ellipse cx="564.023" cy="581.854" rx="363.66" ry="354.377" style="fill:rgb(171,49,49);stroke:white;stroke-width:6.95px;"/>
            </g>
            <g transform="matrix(1.13222,0,0,1.13222,-20.848,-20.8477)">
                <circle cx="540" cy="540" r="350" style="fill:white;"/>
                <clipPath id="_clip1">
                    <circle cx="540" cy="540" r="350"/>
                </clipPath>
                <g clip-path="url(#_clip1)">
                    <g>
                        <g>
                            <g>
                                <g transform="matrix(0.826218,0,0,0.886426,-16.6098,3.70567)">
                                    <rect x="217.391" y="732.478" width="132.028" height="132.028" style="fill:rgb(1,0,70);"/>
                                </g>
                                <g transform="matrix(0.826218,0,0,0.886426,-16.6098,-464.427)">
                                    <rect x="217.391" y="732.478" width="132.028" height="132.028" style="fill:rgb(1,0,70);"/>
                                </g>
                                <g transform="matrix(0.826218,0,0,0.886426,-16.6098,-230.361)">
                                    <rect x="217.391" y="732.478" width="132.028" height="132.028" style="fill:rgb(1,0,70);"/>
                                </g>
                                <g transform="matrix(5.05913e-17,-0.886426,0.826218,5.42779e-17,-5.84765,1196.79)">
                                    <rect x="217.391" y="732.478" width="132.028" height="132.028" style="fill:rgb(1,0,70);"/>
                                </g>
                                <g transform="matrix(5.05913e-17,-0.886426,0.826218,5.42779e-17,-442.184,1196.79)">
                                    <rect x="217.391" y="732.478" width="132.028" height="132.028" style="fill:rgb(1,0,70);"/>
                                </g>
                                <g transform="matrix(5.05913e-17,-0.886426,0.826218,5.42779e-17,212.32,1196.79)">
                                    <rect x="217.391" y="732.478" width="132.028" height="132.028" style="fill:rgb(1,0,70);"/>
                                </g>
                                <g transform="matrix(5.05913e-17,-0.886426,0.826218,5.42779e-17,-224.016,1196.79)">
                                    <rect x="217.391" y="732.478" width="132.028" height="132.028" style="fill:rgb(1,0,70);"/>
                                </g>
                                <g transform="matrix(0.826218,0,0,0.886426,201.546,3.70567)">
                                    <rect x="217.391" y="732.478" width="132.028" height="132.028" style="fill:rgb(1,0,70);"/>
                                </g>
                                <g transform="matrix(0.826218,0,0,0.886426,201.546,-464.427)">
                                    <rect x="217.391" y="732.478" width="132.028" height="132.028" style="fill:rgb(1,0,70);"/>
                                </g>
                                <g transform="matrix(0.826218,0,0,0.886426,201.546,-230.361)">
                                    <rect x="217.391" y="732.478" width="132.028" height="132.028" style="fill:rgb(1,0,70);"/>
                                </g>
                                <g transform="matrix(0.826218,0,0,0.886426,419.714,3.70567)">
                                    <rect x="217.391" y="732.478" width="132.028" height="132.028" style="fill:rgb(1,0,70);"/>
                                </g>
                                <g transform="matrix(0.826218,0,0,0.886426,419.714,-464.427)">
                                    <rect x="217.391" y="732.478" width="132.028" height="132.028" style="fill:rgb(1,0,70);"/>
                                </g>
                                <g transform="matrix(0.826218,0,0,0.886426,419.714,-230.361)">
                                    <rect x="217.391" y="732.478" width="132.028" height="132.028" style="fill:rgb(1,0,70);"/>
                                </g>
                                <g transform="matrix(0.826218,0,0,0.886426,637.882,3.70567)">
                                    <rect x="217.391" y="732.478" width="132.028" height="132.028" style="fill:rgb(1,0,70);"/>
                                </g>
                                <g transform="matrix(0.826218,0,0,0.886426,637.882,-464.427)">
                                    <rect x="217.391" y="732.478" width="132.028" height="132.028" style="fill:rgb(1,0,70);"/>
                                </g>
                                <g transform="matrix(0.826218,0,0,0.886426,637.882,-230.361)">
                                    <rect x="217.391" y="732.478" width="132.028" height="132.028" style="fill:rgb(1,0,70);"/>
                                </g>
                                <g transform="matrix(0.826218,0,0,0.886426,92.4623,-113.327)">
                                    <rect x="217.391" y="732.478" width="132.028" height="132.028" style="fill:rgb(1,0,70);"/>
                                </g>
                                <g transform="matrix(0.826218,0,0,0.886426,92.4623,120.739)">
                                    <rect x="217.391" y="732.478" width="132.028" height="132.028" style="fill:rgb(1,0,70);"/>
                                </g>
                                <g transform="matrix(0.826218,0,0,0.886426,92.4623,-347.394)">
                                    <rect x="217.391" y="732.478" width="132.028" height="132.028" style="fill:rgb(1,0,70);"/>
                                </g>
                                <g transform="matrix(0.826218,0,0,0.886426,310.63,-113.327)">
                                    <rect x="217.391" y="732.478" width="132.028" height="132.028" style="fill:rgb(1,0,70);"/>
                                </g>
                                <g transform="matrix(0.826218,0,0,0.886426,310.63,120.739)">
                                    <rect x="217.391" y="732.478" width="132.028" height="132.028" style="fill:rgb(1,0,70);"/>
                                </g>
                                <g transform="matrix(0.826218,0,0,0.886426,310.63,-347.394)">
                                    <rect x="217.391" y="732.478" width="132.028" height="132.028" style="fill:rgb(1,0,70);"/>
                                </g>
                                <g transform="matrix(0.826218,0,0,0.886426,528.798,-113.327)">
                                    <rect x="217.391" y="732.478" width="132.028" height="132.028" style="fill:rgb(1,0,70);"/>
                                </g>
                                <g transform="matrix(0.826218,0,0,0.886426,528.798,120.739)">
                                    <rect x="217.391" y="732.478" width="132.028" height="132.028" style="fill:rgb(1,0,70);"/>
                                </g>
                                <g transform="matrix(0.826218,0,0,0.886426,528.798,-347.394)">
                                    <rect x="217.391" y="732.478" width="132.028" height="132.028" style="fill:rgb(1,0,70);"/>
                                </g>
                            </g>
                            <g>
                                <g transform="matrix(0.826218,0,0,0.886426,-16.6098,-113.327)">
                                    <rect x="217.391" y="732.478" width="132.028" height="132.028" style="fill:rgb(224,224,224);"/>
                                </g>
                                <g transform="matrix(0.826218,0,0,0.886426,-16.6098,120.739)">
                                    <rect x="217.391" y="732.478" width="132.028" height="132.028" style="fill:rgb(224,224,224);"/>
                                </g>
                                <g transform="matrix(0.826218,0,0,0.886426,-16.6098,-347.394)">
                                    <rect x="217.391" y="732.478" width="132.028" height="132.028" style="fill:rgb(224,224,224);"/>
                                </g>
                                <g transform="matrix(5.05913e-17,-0.886426,0.826218,5.42779e-17,-114.932,1196.79)">
                                    <rect x="217.391" y="732.478" width="132.028" height="132.028" style="fill:rgb(224,224,224);"/>
                                </g>
                                <g transform="matrix(5.05913e-17,-0.886426,0.826218,5.42779e-17,103.236,1196.79)">
                                    <rect x="217.391" y="732.478" width="132.028" height="132.028" style="fill:rgb(224,224,224);"/>
                                </g>
                                <g transform="matrix(5.05913e-17,-0.886426,0.826218,5.42779e-17,-333.1,1196.79)">
                                    <rect x="217.391" y="732.478" width="132.028" height="132.028" style="fill:rgb(224,224,224);"/>
                                </g>
                                <g transform="matrix(0.826218,0,0,0.886426,201.546,-113.327)">
                                    <rect x="217.391" y="732.478" width="132.028" height="132.028" style="fill:rgb(224,224,224);"/>
                                </g>
                                <g transform="matrix(0.826218,0,0,0.886426,201.546,120.739)">
                                    <rect x="217.391" y="732.478" width="132.028" height="132.028" style="fill:rgb(224,224,224);"/>
                                </g>
                                <g transform="matrix(0.826218,0,0,0.886426,201.546,-347.394)">
                                    <rect x="217.391" y="732.478" width="132.028" height="132.028" style="fill:rgb(224,224,224);"/>
                                </g>
                                <g transform="matrix(0.826218,0,0,0.886426,419.714,-113.327)">
                                    <rect x="217.391" y="732.478" width="132.028" height="132.028" style="fill:rgb(224,224,224);"/>
                                </g>
                                <g transform="matrix(0.826218,0,0,0.886426,419.714,120.739)">
                                    <rect x="217.391" y="732.478" width="132.028" height="132.028" style="fill:rgb(224,224,224);"/>
                                </g>
                                <g transform="matrix(0.826218,0,0,0.886426,419.714,-347.394)">
                                    <rect x="217.391" y="732.478" width="132.028" height="132.028" style="fill:rgb(224,224,224);"/>
                                </g>
                                <g transform="matrix(0.826218,0,0,0.886426,637.882,-113.327)">
                                    <rect x="217.391" y="732.478" width="132.028" height="132.028" style="fill:rgb(224,224,224);"/>
                                </g>
                                <g transform="matrix(0.826218,0,0,0.886426,637.882,120.739)">
                                    <rect x="217.391" y="732.478" width="132.028" height="132.028" style="fill:rgb(224,224,224);"/>
                                </g>
                                <g transform="matrix(0.826218,0,0,0.886426,637.882,-347.394)">
                                    <rect x="217.391" y="732.478" width="132.028" height="132.028" style="fill:rgb(224,224,224);"/>
                                </g>
                                <g transform="matrix(0.826218,0,0,0.886426,92.4623,-230.361)">
                                    <rect x="217.391" y="732.478" width="132.028" height="132.028" style="fill:rgb(224,224,224);"/>
                                </g>
                                <g transform="matrix(0.826218,0,0,0.886426,92.4623,3.70567)">
                                    <rect x="217.391" y="732.478" width="132.028" height="132.028" style="fill:rgb(224,224,224);"/>
                                </g>
                                <g transform="matrix(0.826218,0,0,0.886426,92.4623,-464.427)">
                                    <rect x="217.391" y="732.478" width="132.028" height="132.028" style="fill:rgb(224,224,224);"/>
                                </g>
                                <g transform="matrix(0.826218,0,0,0.886426,310.63,-230.361)">
                                    <rect x="217.391" y="732.478" width="132.028" height="132.028" style="fill:rgb(224,224,224);"/>
                                </g>
                                <g transform="matrix(0.826218,0,0,0.886426,310.63,3.70567)">
                                    <rect x="217.391" y="732.478" width="132.028" height="132.028" style="fill:rgb(224,224,224);"/>
                                </g>
                                <g transform="matrix(0.826218,0,0,0.886426,310.63,-464.427)">
                                    <rect x="217.391" y="732.478" width="132.028" height="132.028" style="fill:rgb(224,224,224);"/>
                                </g>
                                <g transform="matrix(0.826218,0,0,0.886426,528.798,-230.361)">
                                    <rect x="217.391" y="732.478" width="132.028" height="132.028" style="fill:rgb(224,224,224);"/>
                                </g>
                                <g transform="matrix(0.826218,0,0,0.886426,528.798,3.70567)">
                                    <rect x="217.391" y="732.478" width="132.028" height="132.028" style="fill:rgb(224,224,224);"/>
                                </g>
                                <g transform="matrix(0.826218,0,0,0.886426,528.798,-464.427)">
                                    <rect x="217.391" y="732.478" width="132.028" height="132.028" style="fill:rgb(224,224,224);"/>
                                </g>
                            </g>
                        </g>
                        <g transform="matrix(0.963941,0,0,1.03416,24.2743,13.8335)">
                            <rect x="143.93" y="165.377" width="792.141" height="792.169" style="fill:white;fill-opacity:0.6;"/>
                        </g>
                    </g>
                </g>
                <circle cx="540" cy="540" r="350" style="fill:none;stroke:white;stroke-width:9.2px;"/>
            </g>
            <g transform="matrix(1.45415,0,0,1.13017,8.81922,-2.01584)">
                <path d="M160.513,204.393L195.159,248.689L188.738,257.003L174.025,238.192L162.664,252.902L177.378,271.713L171.006,279.964L136.36,235.667L142.732,227.417L157.197,245.911L168.557,231.201L154.092,212.707L160.513,204.393Z" style="fill:white;fill-rule:nonzero;"/>
                <path d="M218.068,214.016L204.149,227.554L206.348,236.83L198.522,244.441L185.054,177.406L185.613,176.863L232.119,211.766L224.516,219.16L218.068,214.016ZM211.901,209.051L199.792,199.353L196.475,196.25L197.947,201.147L202.062,218.619L211.901,209.051Z" style="fill:white;fill-rule:nonzero;"/>
                <path d="M242.875,132.176L266.999,188.267L266.386,188.703L232.98,173.227L229.722,171.425L233.32,178.859L243.838,203.315L236.296,208.684L212.241,152.751L212.915,152.271L246.116,168.202L249.806,170.264L246.259,162.948L235.334,137.546L242.875,132.176Z" style="fill:white;fill-rule:nonzero;"/>
                <path d="M292.77,106.519L309.993,166.673L309.336,166.984L278.144,145.16L275.137,142.742L277.815,150.792L285.325,177.02L277.237,180.853L260.062,120.869L260.786,120.526L291.721,142.76L295.125,145.519L292.482,137.595L284.683,110.352L292.77,106.519Z" style="fill:white;fill-rule:nonzero;"/>
                <path d="M338.1,157.973C333.843,159.089 330.009,158.736 326.598,156.915C323.187,155.094 320.336,151.992 318.045,147.608C315.755,143.224 314.096,137.793 313.071,131.314C312.055,124.894 311.93,119.091 312.694,113.907C313.459,108.723 315.117,104.439 317.669,101.056C320.221,97.673 323.602,95.43 327.814,94.327C332.186,93.182 336.079,93.534 339.495,95.384C342.91,97.235 345.745,100.349 347.999,104.727C350.254,109.105 351.886,114.49 352.898,120.88C353.923,127.359 354.042,133.194 353.254,138.384C352.466,143.575 350.791,147.863 348.228,151.249C345.665,154.635 342.289,156.876 338.1,157.973ZM336.604,148.52C338.641,147.986 340.334,146.669 341.682,144.567C343.03,142.466 343.903,139.584 344.301,135.922C344.699,132.26 344.506,127.955 343.723,123.008C342.572,115.734 340.739,110.44 338.224,107.127C335.71,103.814 332.724,102.61 329.268,103.515C325.903,104.397 323.601,106.986 322.362,111.282C321.123,115.579 321.084,121.394 322.244,128.727C323.037,133.733 324.14,137.807 325.555,140.948C326.97,144.089 328.616,146.28 330.493,147.522C332.37,148.763 334.407,149.096 336.604,148.52Z" style="fill:white;fill-rule:nonzero;"/>
                <path d="M396.541,85.451L380.337,150.055L379.218,150.146L356.748,88.689L366.469,87.898L375.52,114.897L378.728,125.161L380.905,114.459L386.96,86.231L396.541,85.451Z" style="fill:white;fill-rule:nonzero;"/>
                <path d="M431.991,140.581L431.515,150.751L404.655,148.673L407.586,85.943L433.047,87.912L432.589,97.723L415.871,96.429L415.186,111.1L428.476,112.128L428.03,121.668L414.74,120.64L413.874,139.18L431.991,140.581Z" style="fill:white;fill-rule:nonzero;"/>
                <path d="M461.373,156.992L452.292,131.69L449.043,154.023L440.296,151.916L449.281,90.145L462.644,93.363C474.032,96.106 478.772,104.035 476.864,117.152C476.438,120.076 475.653,122.861 474.508,125.505C473.363,128.149 471.799,130.364 469.817,132.149C467.834,133.934 465.485,134.928 462.77,135.13L472.049,159.563L461.373,156.992ZM456.755,126.985C458.706,127.455 460.464,127.259 462.027,126.398C463.59,125.536 464.872,124.193 465.874,122.371C466.876,120.548 467.549,118.455 467.893,116.092C468.486,112.015 468.193,108.841 467.014,106.57C465.836,104.299 463.559,102.757 460.184,101.944L456.74,101.114L453.104,126.106L456.755,126.985Z" style="fill:white;fill-rule:nonzero;"/>
                <path d="M490.997,167.934C488.925,167.096 487.047,165.99 485.362,164.615C483.678,163.241 482.268,161.773 481.131,160.211C479.995,158.648 479.159,157.16 478.623,155.746L484.239,148.094C484.541,149.161 485.097,150.394 485.906,151.793C486.715,153.191 487.71,154.507 488.89,155.74C490.07,156.974 491.328,157.861 492.665,158.401C494.426,159.113 496.054,159.087 497.551,158.322C499.048,157.557 500.073,156.042 500.626,153.777C500.984,152.314 501.021,150.935 500.737,149.639C500.454,148.343 499.965,147.09 499.269,145.879C498.573,144.668 497.468,142.953 495.953,140.734C493.881,137.691 492.294,135.166 491.192,133.161C490.09,131.156 489.292,128.786 488.798,126.05C488.303,123.314 488.455,120.311 489.253,117.043C490.031,113.86 491.248,111.257 492.906,109.234C494.563,107.211 496.596,105.93 499.005,105.392C501.413,104.854 504.077,105.175 506.996,106.356C511.742,108.275 515.254,111.743 517.53,116.759L511.643,124.019C511.432,123.177 511.048,122.195 510.49,121.071C509.932,119.948 509.19,118.876 508.264,117.855C507.337,116.835 506.284,116.086 505.103,115.608C503.387,114.914 501.9,115.014 500.641,115.907C499.382,116.8 498.518,118.206 498.049,120.127C497.692,121.59 497.659,123.002 497.951,124.364C498.242,125.727 498.742,127.039 499.449,128.302C500.157,129.565 501.144,131.114 502.409,132.949C504.714,136.244 506.434,138.924 507.57,140.99C508.706,143.056 509.506,145.42 509.97,148.081C510.434,150.741 510.266,153.706 509.468,156.974C508.62,160.444 507.309,163.205 505.534,165.26C503.759,167.314 501.628,168.571 499.14,169.03C496.653,169.489 493.939,169.124 490.997,167.934Z" style="fill:white;fill-rule:nonzero;"/>
                <path d="M528.124,186.52C524.91,184.649 522.324,181.798 520.363,177.968C518.403,174.138 517.391,169.451 517.329,163.905C517.266,158.36 518.405,152.261 520.745,145.607C522.873,139.556 525.531,134.843 528.717,131.47C531.903,128.096 535.312,126.114 538.942,125.523C542.573,124.931 546.144,125.658 549.655,127.702C551.805,128.954 553.53,130.28 554.832,131.681C556.134,133.083 557.088,134.38 557.694,135.574C558.299,136.768 558.832,138.059 559.292,139.449L552.683,145.992C552.305,144.518 551.927,143.333 551.549,142.437C551.172,141.542 550.602,140.665 549.839,139.809C549.077,138.952 548.014,138.128 546.652,137.335C544.524,136.096 542.412,135.831 540.317,136.541C538.221,137.251 536.271,138.787 534.465,141.15C532.66,143.513 531.112,146.529 529.822,150.199C528.204,154.799 527.242,158.973 526.937,162.72C526.632,166.468 526.908,169.582 527.767,172.061C528.626,174.54 529.949,176.3 531.736,177.341C533.63,178.444 535.427,179.077 537.125,179.241C538.824,179.406 540.239,179.19 541.371,178.596L542.022,188.773C540.243,189.386 538.269,189.622 536.101,189.481C533.932,189.341 531.273,188.353 528.124,186.52Z" style="fill:white;fill-rule:nonzero;"/>
                <path d="M601.902,167.038L575.986,220.306L568.265,214.087L579.27,191.465L565.609,180.462L554.603,203.083L546.941,196.912L572.856,143.644L580.519,149.816L569.699,172.055L583.36,183.058L594.18,160.819L601.902,167.038Z" style="fill:white;fill-rule:nonzero;"/>
                <path d="M610.859,243.723L605.771,251.53L585.153,229.283L616.536,181.129L636.081,202.217L631.173,209.748L618.34,195.902L611.001,207.163L621.203,218.17L616.43,225.493L606.228,214.486L596.952,228.718L610.859,243.723Z" style="fill:white;fill-rule:nonzero;"/>
                <path d="M626.836,279.463L631.29,252.189L618.322,267.612L612.281,259.203L648.149,216.546L657.376,229.391C665.24,240.338 665.364,250.34 657.748,259.398C656.05,261.418 654.128,263.048 651.983,264.29C649.837,265.532 647.555,266.108 645.136,266.017C642.718,265.927 640.372,264.92 638.1,262.998L634.209,289.726L626.836,279.463ZM637.053,251.843C638.4,253.719 639.901,254.911 641.555,255.42C643.209,255.929 644.861,255.837 646.51,255.145C648.159,254.452 649.67,253.289 651.043,251.657C653.41,248.842 654.647,246.071 654.755,243.343C654.864,240.616 653.752,237.63 651.422,234.386L649.043,231.075L634.532,248.333L637.053,251.843Z" style="fill:white;fill-rule:nonzero;"/>
            </g>
            <g transform="matrix(1.53789,0,0,1.44048,-267.471,-264.121)">
                <path d="M377.267,888.594C375.527,887.428 374.014,886.109 372.728,884.636C371.443,883.163 370.425,881.689 369.676,880.213C368.927,878.737 368.438,877.394 368.21,876.184L374.77,871.808C374.848,872.695 375.127,873.773 375.608,875.041C376.088,876.309 376.754,877.562 377.604,878.799C378.454,880.037 379.441,881.031 380.564,881.783C382.042,882.773 383.537,883.168 385.048,882.97C386.56,882.771 387.779,881.883 388.706,880.304C389.305,879.286 389.595,878.248 389.576,877.192C389.558,876.136 389.343,875.06 388.931,873.963C388.52,872.866 387.827,871.282 386.854,869.211C385.524,866.372 384.541,864.051 383.906,862.248C383.27,860.444 382.981,858.441 383.036,856.238C383.092,854.035 383.789,851.795 385.127,849.517C386.43,847.3 388.027,845.635 389.919,844.522C391.811,843.409 393.909,842.956 396.212,843.162C398.516,843.368 400.893,844.292 403.344,845.933C407.33,848.602 409.897,852.131 411.048,856.519L404.313,860.527C404.277,859.835 404.108,858.991 403.806,857.996C403.504,857 403.025,855.997 402.367,854.986C401.709,853.975 400.885,853.138 399.893,852.474C398.452,851.509 397.073,851.205 395.756,851.562C394.438,851.918 393.387,852.765 392.6,854.104C392.002,855.123 391.709,856.186 391.723,857.295C391.737,858.403 391.95,859.527 392.362,860.666C392.775,861.806 393.39,863.233 394.207,864.949C395.703,868.039 396.779,870.512 397.434,872.371C398.089,874.229 398.382,876.227 398.312,878.365C398.242,880.503 397.538,882.711 396.2,884.988C394.78,887.406 393.067,889.167 391.062,890.274C389.056,891.38 386.873,891.79 384.512,891.504C382.152,891.217 379.736,890.247 377.267,888.594Z" style="fill:white;fill-rule:nonzero;"/>
                <path d="M415.148,910.596C412.132,909.076 409.72,906.798 407.912,903.761C406.104,900.725 405.203,897.031 405.209,892.68C405.216,888.329 406.365,883.562 408.656,878.381C410.74,873.668 413.307,870.014 416.36,867.42C419.412,864.825 422.658,863.325 426.097,862.921C429.537,862.516 432.904,863.144 436.2,864.805C438.217,865.821 439.833,866.89 441.047,868.01C442.262,869.131 443.148,870.164 443.706,871.111C444.265,872.057 444.753,873.079 445.172,874.176L438.847,879.202C438.506,878.04 438.162,877.104 437.816,876.395C437.47,875.686 436.942,874.989 436.231,874.305C435.52,873.621 434.525,872.957 433.247,872.312C431.25,871.306 429.256,871.064 427.267,871.587C425.277,872.109 423.415,873.283 421.68,875.107C419.945,876.932 418.446,879.273 417.183,882.13C415.599,885.713 414.64,888.971 414.307,891.907C413.974,894.842 414.199,897.289 414.981,899.247C415.764,901.206 416.994,902.609 418.672,903.454C420.449,904.35 422.14,904.876 423.744,905.032C425.348,905.189 426.688,905.043 427.766,904.595L428.261,912.589C426.571,913.041 424.702,913.195 422.654,913.049C420.606,912.903 418.104,912.086 415.148,910.596Z" style="fill:white;fill-rule:nonzero;"/>
                <path d="M483.022,883.886L468.973,930.856L460.768,928.058L466.734,908.111L452.216,903.162L446.25,923.109L438.108,920.333L452.156,873.364L460.299,876.14L454.433,895.749L468.951,900.699L474.816,881.089L483.022,883.886Z" style="fill:white;fill-rule:nonzero;"/>
                <path d="M507.38,931.699L491.123,928.698L487.567,935.293L478.427,933.606L505.69,887.739L506.343,887.86L517.666,940.848L508.787,939.209L507.38,931.699ZM506.06,924.492L503.438,910.368L502.96,906.259L501.284,909.97L494.568,922.371L506.06,924.492Z" style="fill:white;fill-rule:nonzero;"/>
                <path d="M542.975,943.084C539.644,942.922 536.596,941.812 533.831,939.754C531.067,937.696 528.903,934.658 527.338,930.64C525.774,926.622 525.114,921.751 525.358,916.027C525.58,910.821 526.631,906.393 528.511,902.743C530.392,899.093 532.846,896.374 535.874,894.586C538.901,892.797 542.236,891.991 545.876,892.168C548.105,892.277 549.981,892.598 551.506,893.132C553.031,893.667 554.222,894.256 555.079,894.899C555.936,895.543 556.755,896.285 557.537,897.126L553.514,904.365C552.78,903.433 552.126,902.711 551.551,902.199C550.975,901.687 550.236,901.261 549.333,900.923C548.43,900.584 547.273,900.38 545.86,900.311C543.654,900.204 541.727,900.801 540.08,902.101C538.433,903.402 537.138,905.251 536.195,907.649C535.253,910.046 534.714,912.823 534.58,915.979C534.411,919.936 534.703,923.338 535.455,926.183C536.207,929.029 537.297,931.194 538.726,932.68C540.155,934.166 541.796,934.954 543.65,935.044C545.613,935.139 547.363,934.929 548.9,934.414C550.436,933.899 551.621,933.213 552.453,932.356L555.795,939.529C554.399,940.641 552.73,941.552 550.787,942.26C548.845,942.968 546.241,943.243 542.975,943.084Z" style="fill:white;fill-rule:nonzero;"/>
                <path d="M596.088,890.615L599.955,939.748L591.371,940.518L589.729,919.652L574.543,921.014L576.185,941.88L567.668,942.644L563.801,893.511L572.319,892.747L573.933,913.26L589.119,911.898L587.505,891.385L596.088,890.615Z" style="fill:white;fill-rule:nonzero;"/>
                <path d="M638.912,931.321L619.303,911.956L624.404,934.983L616.214,937.051L605.587,889.068L613.776,887.001L619.067,910.889L628.09,883.387L637.569,880.994L627.531,908.679L649.229,928.716L638.912,931.321Z" style="fill:white;fill-rule:nonzero;"/>
                <path d="M677.874,909.63L680.368,916.942L659.511,925.05L643.71,878.72L651.617,875.646L664.924,914.664L677.874,909.63Z" style="fill:white;fill-rule:nonzero;"/>
                <path d="M706.14,905.296C701.66,907.7 697.491,908.334 693.631,907.199C689.772,906.063 686.449,902.535 683.662,896.615L670.331,868.299L678.027,864.169L691.775,893.37C693.342,896.699 695.109,898.627 697.075,899.156C699.042,899.684 700.943,899.455 702.778,898.471C704.633,897.475 705.919,896.006 706.636,894.064C707.354,892.123 706.919,889.466 705.332,886.095L691.585,856.894L699.281,852.764L712.612,881.08C715.399,887.001 716.102,891.934 714.722,895.881C713.342,899.828 710.481,902.967 706.14,905.296Z" style="fill:white;fill-rule:nonzero;"/>
                <path d="M737.73,853.293C740.207,852.267 742.516,852.204 744.656,853.105C746.796,854.005 748.714,855.764 750.41,858.383C752.821,862.107 753.5,865.862 752.448,869.649C751.396,873.435 748.39,877.159 743.43,880.819L733.128,888.421L706.868,847.862L717.006,840.381C725.545,834.079 732.15,834.536 736.822,841.751C737.915,843.439 738.585,845.324 738.832,847.406C739.079,849.488 738.712,851.45 737.73,853.293ZM730.214,846.972C728.958,845.032 727.51,844.08 725.869,844.116C724.227,844.152 722.516,844.827 720.736,846.141L717.465,848.555L724.737,859.786L729.152,856.528C730.315,855.669 731.065,854.672 731.402,853.534C731.74,852.396 731.78,851.256 731.523,850.113C731.266,848.969 730.83,847.922 730.214,846.972ZM740.387,874.379C742.35,872.93 743.654,871.316 744.3,869.535C744.945,867.754 744.496,865.671 742.951,863.285C741.406,860.899 739.736,859.76 737.939,859.867C736.143,859.975 734.2,860.8 732.111,862.342L728.241,865.198L736.191,877.476L740.387,874.379Z" style="fill:white;fill-rule:nonzero;"/>
            </g>
            <g transform="matrix(1.14732,0,0,1.11518,-87.0001,-80.0909)">
                <g transform="matrix(0.825748,0,0,0.897734,392.268,388.727)">
                    <path d="M365.448,432.474L365.216,432.474C371.499,426.656 375.496,418.407 375.496,409.168C375.496,391.578 361.234,377.316 343.644,377.316L337.259,377.316C337.259,377.316 322.666,304.511 312.29,252.745C307.77,230.196 311.671,206.861 323.325,186.733C326.154,182.091 327.717,176.636 327.717,170.816C327.717,168.441 327.45,166.131 326.948,163.911C325.426,157.138 319.105,152.295 311.788,152.295C282.673,152.293 197.577,152.293 168.462,152.293C161.144,152.293 154.822,157.137 153.299,163.911C152.8,166.131 152.533,168.441 152.533,170.816C152.533,176.53 154.039,181.892 156.676,186.527C168.425,207.172 172.316,231.011 167.699,254.048C157.341,305.723 142.991,377.316 142.991,377.316L136.606,377.316C119.016,377.316 104.754,391.578 104.754,409.168C104.754,418.407 108.751,426.656 115.034,432.474L114.8,432.474C98.626,432.474 85.508,445.592 85.508,461.767L85.508,474.046C85.508,477.468 88.292,480.252 91.713,480.252L388.536,480.252C391.959,480.252 394.742,477.468 394.742,474.046L394.742,461.767C394.743,445.592 381.624,432.474 365.448,432.474Z" style="fill:rgb(171,49,49);fill-rule:nonzero;"/>
                    <path d="M135.704,369.003C113.804,369.475 95.958,387.159 95.958,409.168C95.958,415.601 97.507,421.65 100.235,427.009C86.479,432.64 76.712,446.018 76.712,461.767L76.712,474.046C76.712,482.182 83.579,488.576 91.713,488.576L388.536,488.576C396.674,488.576 403.538,482.182 403.538,474.046L403.538,461.767C403.539,446.021 393.774,432.644 380.015,427.009C382.743,421.65 384.292,415.601 384.292,409.168C384.292,387.159 366.446,369.475 344.546,369.003L320.932,251.194C316.8,230.577 320.353,209.243 330.984,190.829C334.533,184.968 336.513,178.124 336.513,170.816C336.513,167.843 336.178,164.953 335.55,162.174C333.162,151.56 323.256,143.971 311.788,143.971C282.673,143.969 197.577,143.969 168.462,143.969C156.991,143.969 147.083,151.561 144.696,162.178C144.071,164.956 143.737,167.845 143.737,170.816C143.737,177.966 145.632,184.673 148.932,190.473C148.932,190.473 148.932,190.474 148.932,190.474C159.724,209.438 163.298,231.335 159.057,252.497L135.704,369.003ZM365.448,432.474L365.216,432.474C371.499,426.656 375.496,418.407 375.496,409.168C375.496,391.578 361.234,377.316 343.644,377.316L337.259,377.316C337.259,377.316 322.666,304.511 312.29,252.745C307.77,230.196 311.671,206.861 323.325,186.733C326.154,182.091 327.717,176.636 327.717,170.816C327.717,168.441 327.45,166.131 326.948,163.911C325.426,157.138 319.105,152.295 311.788,152.295C282.673,152.293 197.577,152.293 168.462,152.293C161.144,152.293 154.822,157.137 153.299,163.911C152.8,166.131 152.533,168.441 152.533,170.816C152.533,176.53 154.039,181.892 156.676,186.527C168.425,207.172 172.316,231.011 167.699,254.048C157.341,305.723 142.991,377.316 142.991,377.316L136.606,377.316C119.016,377.316 104.754,391.578 104.754,409.168C104.754,418.407 108.751,426.656 115.034,432.474L114.8,432.474C98.626,432.474 85.508,445.592 85.508,461.767L85.508,474.046C85.508,477.468 88.292,480.252 91.713,480.252L388.536,480.252C391.959,480.252 394.742,477.468 394.742,474.046L394.742,461.767C394.743,445.592 381.624,432.474 365.448,432.474Z" style="fill:rgb(11,0,0);"/>
                    <path d="M365.448,432.474L365.216,432.474C371.499,426.656 375.496,418.407 375.496,409.168C375.496,391.578 361.234,377.316 343.644,377.316L337.259,377.316C337.259,377.316 322.666,304.511 312.29,252.745C307.77,230.196 311.671,206.861 323.325,186.733C326.154,182.091 327.717,176.636 327.717,170.816C327.717,168.441 327.45,166.131 326.948,163.911C325.426,157.138 319.105,152.295 311.788,152.295C282.673,152.293 197.577,152.293 168.462,152.293C161.144,152.293 154.822,157.137 153.299,163.911C152.8,166.131 152.533,168.441 152.533,170.816C152.533,176.53 154.039,181.892 156.676,186.527C168.425,207.172 172.316,231.011 167.699,254.048C157.341,305.723 142.991,377.316 142.991,377.316L136.606,377.316C119.016,377.316 104.754,391.578 104.754,409.168C104.754,418.407 108.751,426.656 115.034,432.474L114.8,432.474C98.626,432.474 85.508,445.592 85.508,461.767L85.508,474.046C85.508,477.468 88.292,480.252 91.713,480.252L388.536,480.252C391.959,480.252 394.742,477.468 394.742,474.046L394.742,461.767C394.743,445.592 381.624,432.474 365.448,432.474Z" style="fill:none;fill-rule:nonzero;stroke:white;stroke-width:5.13px;stroke-linecap:butt;stroke-miterlimit:2;"/>
                </g>
                <g transform="matrix(0.825748,0,0,0.897734,392.268,398.007)">
                    <path d="M369.858,64.538L369.858,6.205C369.858,2.784 365.658,0 360.503,0C343.956,17.949 329.217,17.194 316.068,0C310.889,0 306.707,2.784 306.707,6.205L306.707,47.69C306.707,53.18 302.004,57.631 296.202,57.631C292.62,57.631 288.57,57.631 284.809,57.631C277.572,57.631 271.705,52.079 271.705,45.23C271.705,30.013 271.705,6.205 271.705,6.205C271.705,2.784 267.513,0 262.358,0C247.868,14.035 233.957,12.556 220.384,2.034C217.911,0.114 214.42,-0.104 211.703,1.493C209.782,2.681 208.546,4.349 208.546,6.205L208.546,46.863C208.546,49.719 207.347,52.458 205.213,54.477C203.079,56.496 200.185,57.631 197.167,57.631L182.699,57.631C177.643,57.631 173.544,53.752 173.544,48.968C173.544,34.312 173.544,6.205 173.544,6.205C173.544,2.784 166.19,-3.16 164.181,0C155.772,13.229 126.685,12.983 120.792,3.727C119.851,2.261 118.221,1.314 116.413,1.185C114.606,1.055 112.844,1.758 111.68,3.073C110.861,3.99 110.393,5.062 110.393,6.205L110.393,57.102C110.393,92.358 140.595,120.939 177.851,120.939L310.258,120.939C343.174,120.939 369.858,95.687 369.858,64.538Z" style="fill:rgb(171,49,49);fill-rule:nonzero;"/>
                    <path d="M378.654,6.206L378.654,6.205C378.654,-0.914 371.23,-8.324 360.503,-8.324C357.962,-8.324 355.545,-7.284 353.875,-5.472C347.82,1.096 342.544,4.924 337.13,4.855C332.036,4.79 327.722,1.041 323.194,-4.88C321.539,-7.043 318.889,-8.324 316.068,-8.324C305.293,-8.324 297.911,-0.912 297.911,6.205C297.911,6.205 297.911,47.69 297.911,47.69C297.911,48.583 297.146,49.307 296.202,49.307C296.202,49.307 284.809,49.307 284.809,49.307C282.43,49.307 280.501,47.482 280.501,45.23C280.501,30.013 280.501,6.205 280.501,6.205C280.501,-0.916 273.089,-8.324 262.358,-8.324C259.99,-8.324 257.722,-7.42 256.066,-5.817C250.858,-0.772 245.957,1.853 240.934,1.903C235.819,1.953 230.928,-0.552 225.958,-4.405C220.579,-8.581 212.98,-9.055 207.063,-5.579C207.005,-5.545 206.948,-5.51 206.892,-5.475C202.246,-2.603 199.75,1.716 199.75,6.205L199.75,46.863C199.75,47.511 199.478,48.133 198.993,48.591C198.509,49.05 197.852,49.307 197.167,49.307C197.167,49.307 182.699,49.307 182.699,49.307C182.501,49.307 182.34,49.155 182.34,48.968C182.34,34.312 182.34,6.205 182.34,6.205C182.34,4.41 181.831,2.326 180.658,0.251C179.004,-2.671 175.8,-5.749 172.655,-7.422C165.98,-10.973 159.796,-9.25 156.644,-4.291C155.134,-1.916 152.356,-0.47 149.327,0.525C145.403,1.816 140.952,2.237 136.898,1.927C134.441,1.739 132.133,1.291 130.242,0.52C129.452,0.197 128.673,-0.024 128.326,-0.569C128.32,-0.577 128.315,-0.586 128.31,-0.594C125.896,-4.354 121.715,-6.782 117.079,-7.115C112.443,-7.448 107.923,-5.645 104.937,-2.273C102.747,0.181 101.597,3.118 101.597,6.205L101.597,57.102C101.597,96.955 135.737,129.263 177.851,129.263L310.258,129.263C348.032,129.263 378.654,100.285 378.654,64.538L378.654,6.206ZM369.858,64.538L369.858,6.205C369.858,2.784 365.658,0 360.503,0C343.956,17.949 329.217,17.194 316.068,0C310.889,0 306.707,2.784 306.707,6.205L306.707,47.69C306.707,53.18 302.004,57.631 296.202,57.631C292.62,57.631 288.57,57.631 284.809,57.631C277.572,57.631 271.705,52.079 271.705,45.23C271.705,30.013 271.705,6.205 271.705,6.205C271.705,2.784 267.513,0 262.358,0C247.868,14.035 233.957,12.556 220.384,2.034C217.911,0.114 214.42,-0.104 211.703,1.493C209.782,2.681 208.546,4.349 208.546,6.205L208.546,46.863C208.546,49.719 207.347,52.458 205.213,54.477C203.079,56.496 200.185,57.631 197.167,57.631L182.699,57.631C177.643,57.631 173.544,53.752 173.544,48.968C173.544,34.312 173.544,6.205 173.544,6.205C173.544,2.784 166.19,-3.16 164.181,0C155.772,13.229 126.685,12.983 120.792,3.727C119.851,2.261 118.221,1.314 116.413,1.185C114.606,1.055 112.844,1.758 111.68,3.073C110.861,3.99 110.393,5.062 110.393,6.205L110.393,57.102C110.393,92.358 140.595,120.939 177.851,120.939L310.258,120.939C343.174,120.939 369.858,95.687 369.858,64.538Z"/>
                    <path d="M369.858,64.538L369.858,6.205C369.858,2.784 365.658,0 360.503,0C343.956,17.949 329.217,17.194 316.068,0C310.889,0 306.707,2.784 306.707,6.205L306.707,47.69C306.707,53.18 302.004,57.631 296.202,57.631C292.62,57.631 288.57,57.631 284.809,57.631C277.572,57.631 271.705,52.079 271.705,45.23C271.705,30.013 271.705,6.205 271.705,6.205C271.705,2.784 267.513,0 262.358,0C247.868,14.035 233.957,12.556 220.384,2.034C217.911,0.114 214.42,-0.104 211.703,1.493C209.782,2.681 208.546,4.349 208.546,6.205L208.546,46.863C208.546,49.719 207.347,52.458 205.213,54.477C203.079,56.496 200.185,57.631 197.167,57.631L182.699,57.631C177.643,57.631 173.544,53.752 173.544,48.968C173.544,34.312 173.544,6.205 173.544,6.205C173.544,2.784 166.19,-3.16 164.181,0C155.772,13.229 126.685,12.983 120.792,3.727C119.851,2.261 118.221,1.314 116.413,1.185C114.606,1.055 112.844,1.758 111.68,3.073C110.861,3.99 110.393,5.062 110.393,6.205L110.393,57.102C110.393,92.358 140.595,120.939 177.851,120.939L310.258,120.939C343.174,120.939 369.858,95.687 369.858,64.538Z" style="fill:none;fill-rule:nonzero;stroke:white;stroke-width:5.13px;stroke-linecap:butt;stroke-miterlimit:2;"/>
                </g>
            </g>
            <g transform="matrix(1.13222,0,0,1.13222,-55.9938,-15.9972)">
                <path d="M130.878,523.46L141.57,517.916L141.57,580.836L130.878,580.836L130.878,523.46Z" style="fill:white;fill-rule:nonzero;"/>
                <path d="M184.061,548.804C187.361,550.036 189.962,551.943 191.862,554.524C193.763,557.105 194.714,560.273 194.714,564.028C194.714,568.223 193.717,571.699 191.724,574.456C189.731,577.213 187.157,579.23 184.002,580.506C180.847,581.782 177.501,582.42 173.963,582.42C170.399,582.42 167.04,581.782 163.885,580.506C160.73,579.23 158.15,577.213 156.143,574.456C154.137,571.699 153.134,568.223 153.134,564.028C153.134,560.303 154.071,557.157 155.945,554.59C157.82,552.023 160.407,550.095 163.707,548.804C161.067,547.484 159.041,545.585 157.628,543.106C156.216,540.627 155.51,537.569 155.51,533.932C155.51,530.265 156.381,527.237 158.123,524.846C159.866,522.455 162.136,520.717 164.934,519.632C167.733,518.547 170.769,518.004 174.042,518.004C177.29,518.004 180.293,518.547 183.051,519.632C185.81,520.717 188.048,522.455 189.764,524.846C191.48,527.237 192.338,530.265 192.338,533.932C192.338,537.481 191.605,540.503 190.14,542.996C188.675,545.489 186.648,547.425 184.061,548.804ZM174.122,526.1C168.789,526.1 166.122,528.975 166.122,534.724C166.122,537.863 166.835,540.319 168.261,542.094C169.686,543.869 171.64,544.756 174.122,544.756C176.577,544.756 178.471,543.876 179.804,542.116C181.137,540.356 181.804,537.892 181.804,534.724C181.804,531.82 181.184,529.657 179.943,528.234C178.702,526.811 176.762,526.1 174.122,526.1ZM173.963,573.532C176.999,573.532 179.303,572.725 180.873,571.112C182.444,569.499 183.23,567.079 183.23,563.852C183.23,560.215 182.332,557.56 180.537,555.888C178.742,554.216 176.55,553.38 173.963,553.38C171.323,553.38 169.092,554.216 167.271,555.888C165.449,557.56 164.538,560.215 164.538,563.852C164.538,567.079 165.337,569.499 166.934,571.112C168.531,572.725 170.874,573.532 173.963,573.532Z" style="fill:white;fill-rule:nonzero;"/>
            </g>
            <g transform="matrix(1.13222,0,0,1.13222,867.922,-16.8668)">
                <path d="M161.761,520.302L144.76,580.836L133.955,580.836L149.104,530.55L127.23,530.55L127.23,520.302L161.761,520.302Z" style="fill:white;fill-rule:nonzero;"/>
                <path d="M186.62,582.139C183.043,582.139 179.744,581.133 176.721,579.121C173.699,577.109 171.243,573.83 169.354,569.285C167.465,564.74 166.521,558.863 166.521,551.654C166.521,545.025 167.503,539.228 169.468,534.263C171.432,529.298 174.152,525.484 177.628,522.82C181.104,520.157 185.058,518.825 189.491,518.825C192.841,518.825 195.504,519.201 197.481,519.954C199.458,520.707 201.102,521.807 202.412,523.254L198.709,531.592C197.777,530.434 196.505,529.594 194.893,529.073C193.281,528.552 191.657,528.292 190.02,528.292C187.526,528.292 185.297,529.167 183.333,530.919C181.368,532.67 179.819,534.943 178.686,537.737C177.552,540.53 176.898,543.462 176.721,546.53C176.671,547.341 176.646,548.412 176.646,549.744C177.955,546.878 179.819,544.728 182.237,543.295C184.655,541.862 187.325,541.146 190.246,541.146C193.546,541.146 196.386,541.992 198.766,543.686C201.146,545.379 202.953,547.674 204.187,550.569C205.421,553.464 206.038,556.692 206.038,560.253C206.038,564.653 205.232,568.503 203.62,571.804C202.009,575.104 199.735,577.651 196.801,579.446C193.867,581.241 190.473,582.139 186.62,582.139ZM187.149,573.193C188.76,573.193 190.234,572.715 191.569,571.76C192.904,570.805 193.961,569.422 194.742,567.613C195.523,565.804 195.913,563.698 195.913,561.295C195.913,557.792 195.252,555.034 193.93,553.022C192.608,551.01 190.624,550.004 187.98,550.004C186.343,550.004 184.756,550.475 183.219,551.416C181.683,552.356 180.417,553.623 179.423,555.215C178.428,556.807 177.88,558.516 177.779,560.339C177.779,562.655 178.157,564.79 178.913,566.745C179.668,568.699 180.757,570.262 182.18,571.434C183.604,572.607 185.26,573.193 187.149,573.193Z" style="fill:white;fill-rule:nonzero;"/>
            </g>
        </g>
    </g>
</svg>
