<?xml version="1.0" encoding="UTF-8" standalone="no"?>
<!DOCTYPE svg PUBLIC "-//W3C//DTD SVG 1.1//EN" "http://www.w3.org/Graphics/SVG/1.1/DTD/svg11.dtd">
<svg width="100%" height="100%" viewBox="0 0 1087 1087" version="1.1" xmlns="http://www.w3.org/2000/svg" xmlns:xlink="http://www.w3.org/1999/xlink" xml:space="preserve" xmlns:serif="http://www.serif.com/" style="fill-rule:evenodd;clip-rule:evenodd;stroke-linecap:round;stroke-linejoin:round;stroke-miterlimit:1.5;">
    <g transform="matrix(1,0,0,1,-47.5383,-47.5383)">
        <g>
            <g transform="matrix(1.47887,0,0,1.51761,-243.563,-292.474)">
                <ellipse cx="564.023" cy="581.854" rx="363.66" ry="354.377" style="fill:rgb(171,49,49);stroke:white;stroke-width:6.95px;"/>
            </g>
            <g transform="matrix(1.13222,0,0,1.13222,-20.848,-20.8477)">
                <circle cx="540" cy="540" r="350" style="fill:white;"/>
                <clipPath id="_clip1">
                    <circle cx="540" cy="540" r="350"/>
                </clipPath>
                <g clip-path="url(#_clip1)">
                    <g>
                        <g>
                            <g>
                                <g transform="matrix(0.826218,0,0,0.886426,-16.6098,3.70567)">
                                    <rect x="217.391" y="732.478" width="132.028" height="132.028" style="fill:rgb(1,0,70);"/>
                                </g>
                                <g transform="matrix(0.826218,0,0,0.886426,-16.6098,-464.427)">
                                    <rect x="217.391" y="732.478" width="132.028" height="132.028" style="fill:rgb(1,0,70);"/>
                                </g>
                                <g transform="matrix(0.826218,0,0,0.886426,-16.6098,-230.361)">
                                    <rect x="217.391" y="732.478" width="132.028" height="132.028" style="fill:rgb(1,0,70);"/>
                                </g>
                                <g transform="matrix(5.05913e-17,-0.886426,0.826218,5.42779e-17,-5.84765,1196.79)">
                                    <rect x="217.391" y="732.478" width="132.028" height="132.028" style="fill:rgb(1,0,70);"/>
                                </g>
                                <g transform="matrix(5.05913e-17,-0.886426,0.826218,5.42779e-17,-442.184,1196.79)">
                                    <rect x="217.391" y="732.478" width="132.028" height="132.028" style="fill:rgb(1,0,70);"/>
                                </g>
                                <g transform="matrix(5.05913e-17,-0.886426,0.826218,5.42779e-17,212.32,1196.79)">
                                    <rect x="217.391" y="732.478" width="132.028" height="132.028" style="fill:rgb(1,0,70);"/>
                                </g>
                                <g transform="matrix(5.05913e-17,-0.886426,0.826218,5.42779e-17,-224.016,1196.79)">
                                    <rect x="217.391" y="732.478" width="132.028" height="132.028" style="fill:rgb(1,0,70);"/>
                                </g>
                                <g transform="matrix(0.826218,0,0,0.886426,201.546,3.70567)">
                                    <rect x="217.391" y="732.478" width="132.028" height="132.028" style="fill:rgb(1,0,70);"/>
                                </g>
                                <g transform="matrix(0.826218,0,0,0.886426,201.546,-464.427)">
                                    <rect x="217.391" y="732.478" width="132.028" height="132.028" style="fill:rgb(1,0,70);"/>
                                </g>
                                <g transform="matrix(0.826218,0,0,0.886426,201.546,-230.361)">
                                    <rect x="217.391" y="732.478" width="132.028" height="132.028" style="fill:rgb(1,0,70);"/>
                                </g>
                                <g transform="matrix(0.826218,0,0,0.886426,419.714,3.70567)">
                                    <rect x="217.391" y="732.478" width="132.028" height="132.028" style="fill:rgb(1,0,70);"/>
                                </g>
                                <g transform="matrix(0.826218,0,0,0.886426,419.714,-464.427)">
                                    <rect x="217.391" y="732.478" width="132.028" height="132.028" style="fill:rgb(1,0,70);"/>
                                </g>
                                <g transform="matrix(0.826218,0,0,0.886426,419.714,-230.361)">
                                    <rect x="217.391" y="732.478" width="132.028" height="132.028" style="fill:rgb(1,0,70);"/>
                                </g>
                                <g transform="matrix(0.826218,0,0,0.886426,637.882,3.70567)">
                                    <rect x="217.391" y="732.478" width="132.028" height="132.028" style="fill:rgb(1,0,70);"/>
                                </g>
                                <g transform="matrix(0.826218,0,0,0.886426,637.882,-464.427)">
                                    <rect x="217.391" y="732.478" width="132.028" height="132.028" style="fill:rgb(1,0,70);"/>
                                </g>
                                <g transform="matrix(0.826218,0,0,0.886426,637.882,-230.361)">
                                    <rect x="217.391" y="732.478" width="132.028" height="132.028" style="fill:rgb(1,0,70);"/>
                                </g>
                                <g transform="matrix(0.826218,0,0,0.886426,92.4623,-113.327)">
                                    <rect x="217.391" y="732.478" width="132.028" height="132.028" style="fill:rgb(1,0,70);"/>
                                </g>
                                <g transform="matrix(0.826218,0,0,0.886426,92.4623,120.739)">
                                    <rect x="217.391" y="732.478" width="132.028" height="132.028" style="fill:rgb(1,0,70);"/>
                                </g>
                                <g transform="matrix(0.826218,0,0,0.886426,92.4623,-347.394)">
                                    <rect x="217.391" y="732.478" width="132.028" height="132.028" style="fill:rgb(1,0,70);"/>
                                </g>
                                <g transform="matrix(0.826218,0,0,0.886426,310.63,-113.327)">
                                    <rect x="217.391" y="732.478" width="132.028" height="132.028" style="fill:rgb(1,0,70);"/>
                                </g>
                                <g transform="matrix(0.826218,0,0,0.886426,310.63,120.739)">
                                    <rect x="217.391" y="732.478" width="132.028" height="132.028" style="fill:rgb(1,0,70);"/>
                                </g>
                                <g transform="matrix(0.826218,0,0,0.886426,310.63,-347.394)">
                                    <rect x="217.391" y="732.478" width="132.028" height="132.028" style="fill:rgb(1,0,70);"/>
                                </g>
                                <g transform="matrix(0.826218,0,0,0.886426,528.798,-113.327)">
                                    <rect x="217.391" y="732.478" width="132.028" height="132.028" style="fill:rgb(1,0,70);"/>
                                </g>
                                <g transform="matrix(0.826218,0,0,0.886426,528.798,120.739)">
                                    <rect x="217.391" y="732.478" width="132.028" height="132.028" style="fill:rgb(1,0,70);"/>
                                </g>
                                <g transform="matrix(0.826218,0,0,0.886426,528.798,-347.394)">
                                    <rect x="217.391" y="732.478" width="132.028" height="132.028" style="fill:rgb(1,0,70);"/>
                                </g>
                            </g>
                            <g>
                                <g transform="matrix(0.826218,0,0,0.886426,-16.6098,-113.327)">
                                    <rect x="217.391" y="732.478" width="132.028" height="132.028" style="fill:rgb(224,224,224);"/>
                                </g>
                                <g transform="matrix(0.826218,0,0,0.886426,-16.6098,120.739)">
                                    <rect x="217.391" y="732.478" width="132.028" height="132.028" style="fill:rgb(224,224,224);"/>
                                </g>
                                <g transform="matrix(0.826218,0,0,0.886426,-16.6098,-347.394)">
                                    <rect x="217.391" y="732.478" width="132.028" height="132.028" style="fill:rgb(224,224,224);"/>
                                </g>
                                <g transform="matrix(5.05913e-17,-0.886426,0.826218,5.42779e-17,-114.932,1196.79)">
                                    <rect x="217.391" y="732.478" width="132.028" height="132.028" style="fill:rgb(224,224,224);"/>
                                </g>
                                <g transform="matrix(5.05913e-17,-0.886426,0.826218,5.42779e-17,103.236,1196.79)">
                                    <rect x="217.391" y="732.478" width="132.028" height="132.028" style="fill:rgb(224,224,224);"/>
                                </g>
                                <g transform="matrix(5.05913e-17,-0.886426,0.826218,5.42779e-17,-333.1,1196.79)">
                                    <rect x="217.391" y="732.478" width="132.028" height="132.028" style="fill:rgb(224,224,224);"/>
                                </g>
                                <g transform="matrix(0.826218,0,0,0.886426,201.546,-113.327)">
                                    <rect x="217.391" y="732.478" width="132.028" height="132.028" style="fill:rgb(224,224,224);"/>
                                </g>
                                <g transform="matrix(0.826218,0,0,0.886426,201.546,120.739)">
                                    <rect x="217.391" y="732.478" width="132.028" height="132.028" style="fill:rgb(224,224,224);"/>
                                </g>
                                <g transform="matrix(0.826218,0,0,0.886426,201.546,-347.394)">
                                    <rect x="217.391" y="732.478" width="132.028" height="132.028" style="fill:rgb(224,224,224);"/>
                                </g>
                                <g transform="matrix(0.826218,0,0,0.886426,419.714,-113.327)">
                                    <rect x="217.391" y="732.478" width="132.028" height="132.028" style="fill:rgb(224,224,224);"/>
                                </g>
                                <g transform="matrix(0.826218,0,0,0.886426,419.714,120.739)">
                                    <rect x="217.391" y="732.478" width="132.028" height="132.028" style="fill:rgb(224,224,224);"/>
                                </g>
                                <g transform="matrix(0.826218,0,0,0.886426,419.714,-347.394)">
                                    <rect x="217.391" y="732.478" width="132.028" height="132.028" style="fill:rgb(224,224,224);"/>
                                </g>
                                <g transform="matrix(0.826218,0,0,0.886426,637.882,-113.327)">
                                    <rect x="217.391" y="732.478" width="132.028" height="132.028" style="fill:rgb(224,224,224);"/>
                                </g>
                                <g transform="matrix(0.826218,0,0,0.886426,637.882,120.739)">
                                    <rect x="217.391" y="732.478" width="132.028" height="132.028" style="fill:rgb(224,224,224);"/>
                                </g>
                                <g transform="matrix(0.826218,0,0,0.886426,637.882,-347.394)">
                                    <rect x="217.391" y="732.478" width="132.028" height="132.028" style="fill:rgb(224,224,224);"/>
                                </g>
                                <g transform="matrix(0.826218,0,0,0.886426,92.4623,-230.361)">
                                    <rect x="217.391" y="732.478" width="132.028" height="132.028" style="fill:rgb(224,224,224);"/>
                                </g>
                                <g transform="matrix(0.826218,0,0,0.886426,92.4623,3.70567)">
                                    <rect x="217.391" y="732.478" width="132.028" height="132.028" style="fill:rgb(224,224,224);"/>
                                </g>
                                <g transform="matrix(0.826218,0,0,0.886426,92.4623,-464.427)">
                                    <rect x="217.391" y="732.478" width="132.028" height="132.028" style="fill:rgb(224,224,224);"/>
                                </g>
                                <g transform="matrix(0.826218,0,0,0.886426,310.63,-230.361)">
                                    <rect x="217.391" y="732.478" width="132.028" height="132.028" style="fill:rgb(224,224,224);"/>
                                </g>
                                <g transform="matrix(0.826218,0,0,0.886426,310.63,3.70567)">
                                    <rect x="217.391" y="732.478" width="132.028" height="132.028" style="fill:rgb(224,224,224);"/>
                                </g>
                                <g transform="matrix(0.826218,0,0,0.886426,310.63,-464.427)">
                                    <rect x="217.391" y="732.478" width="132.028" height="132.028" style="fill:rgb(224,224,224);"/>
                                </g>
                                <g transform="matrix(0.826218,0,0,0.886426,528.798,-230.361)">
                                    <rect x="217.391" y="732.478" width="132.028" height="132.028" style="fill:rgb(224,224,224);"/>
                                </g>
                                <g transform="matrix(0.826218,0,0,0.886426,528.798,3.70567)">
                                    <rect x="217.391" y="732.478" width="132.028" height="132.028" style="fill:rgb(224,224,224);"/>
                                </g>
                                <g transform="matrix(0.826218,0,0,0.886426,528.798,-464.427)">
                                    <rect x="217.391" y="732.478" width="132.028" height="132.028" style="fill:rgb(224,224,224);"/>
                                </g>
                            </g>
                        </g>
                        <g transform="matrix(0.963941,0,0,1.03416,24.2743,13.8335)">
                            <rect x="143.93" y="165.377" width="792.141" height="792.169" style="fill:white;fill-opacity:0.6;"/>
                        </g>
                    </g>
                </g>
                <circle cx="540" cy="540" r="350" style="fill:none;stroke:white;stroke-width:9.2px;"/>
            </g>
            <g transform="matrix(1.13222,0,0,1.13222,39.9858,-2.3207)">
                <g transform="matrix(0.704864,-0.709343,0.709343,0.704864,-147.103,216.627)">
                    <text x="186.773px" y="285.09px" style="font-family:'Alatsi-Regular', 'Alatsi';font-size:90px;fill:white;">H</text>
                </g>
                <g transform="matrix(0.797746,-0.602994,0.602994,0.797746,-100.488,187.1)">
                    <text x="228.662px" y="243.346px" style="font-family:'Alatsi-Regular', 'Alatsi';font-size:90px;fill:white;">A</text>
                </g>
                <g transform="matrix(0.874968,-0.48418,0.48418,0.874968,-69.0846,156.946)">
                    <text x="269.342px" y="212.237px" style="font-family:'Alatsi-Regular', 'Alatsi';font-size:90px;fill:white;">N</text>
                </g>
                <g transform="matrix(0.938354,-0.345675,0.345675,0.938354,-43.5843,122.421)">
                    <text x="321.444px" y="183.409px" style="font-family:'Alatsi-Regular', 'Alatsi';font-size:90px;fill:white;">N</text>
                </g>
                <g transform="matrix(0.979894,-0.199517,0.199517,0.979894,-24.8986,78.5692)">
                    <text x="377.389px" y="162.825px" style="font-family:'Alatsi-Regular', 'Alatsi';font-size:90px;fill:white;">O</text>
                </g>
                <g transform="matrix(0.998006,-0.0631177,0.0631177,0.998006,-8.68426,27.7904)">
                    <text x="435.514px" y="151.347px" style="font-family:'Alatsi-Regular', 'Alatsi';font-size:90px;fill:white;">V</text>
                </g>
                <g transform="matrix(0.998198,0.0600074,-0.0600074,0.998198,9.76914,-28.831)">
                    <text x="484.909px" y="148.237px" style="font-family:'Alatsi-Regular', 'Alatsi';font-size:90px;fill:white;">E</text>
                </g>
                <g transform="matrix(0.98293,0.183978,-0.183978,0.98293,36.7483,-95.0363)">
                    <text x="530.529px" y="150.52px" style="font-family:'Alatsi-Regular', 'Alatsi';font-size:90px;fill:white;">R</text>
                </g>
                <g transform="matrix(0.953981,0.299868,-0.299868,0.953981,74.7723,-167.026)">
                    <text x="581.567px" y="160.1px" style="font-family:'Alatsi-Regular', 'Alatsi';font-size:90px;fill:white;">S</text>
                </g>
                <g transform="matrix(0.911066,0.412261,-0.412261,0.911066,127.147,-242.211)">
                    <text x="624.968px" y="173.595px" style="font-family:'Alatsi-Regular', 'Alatsi';font-size:90px;fill:white;">C</text>
                </g>
                <g transform="matrix(0.847626,0.530594,-0.530594,0.847626,204.171,-325.333)">
                    <text x="668.52px" y="192.814px" style="font-family:'Alatsi-Regular', 'Alatsi';font-size:90px;fill:white;">H</text>
                </g>
                <g transform="matrix(0.766244,0.64255,-0.64255,0.766244,312.157,-409.153)">
                    <text x="718.419px" y="224.454px" style="font-family:'Alatsi-Regular', 'Alatsi';font-size:90px;fill:white;">E</text>
                </g>
                <g transform="matrix(0.678773,0.734348,-0.734348,0.678773,428.236,-472.074)">
                    <text x="753.716px" y="253.452px" style="font-family:'Alatsi-Regular', 'Alatsi';font-size:90px;fill:white;">R</text>
                </g>
            </g>
            <g transform="matrix(1.13222,0,0,1.13222,-177.87,-193.463)">
                <g transform="matrix(0.847167,0.531326,-0.531326,0.847167,623.963,-58.9565)">
                    <text x="414.463px" y="1055.13px" style="font-family:'Alatsi-Regular', 'Alatsi';font-size:90px;fill:white;">S</text>
                </g>
                <g transform="matrix(0.90431,0.426877,-0.426877,0.90431,506.177,-92.3937)">
                    <text x="459.174px" y="1082.84px" style="font-family:'Alatsi-Regular', 'Alatsi';font-size:90px;fill:white;">C</text>
                </g>
                <g transform="matrix(0.952611,0.30419,-0.30419,0.952611,360.603,-102.333)">
                    <text x="508.742px" y="1106.2px" style="font-family:'Alatsi-Regular', 'Alatsi';font-size:90px;fill:white;">H</text>
                </g>
                <g transform="matrix(0.985382,0.170359,-0.170359,0.985382,200.128,-81.0275)">
                    <text x="572.216px" y="1125.64px" style="font-family:'Alatsi-Regular', 'Alatsi';font-size:90px;fill:white;">A</text>
                </g>
                <g transform="matrix(0.998965,0.0454816,-0.0454816,0.998965,52.2757,-27.4635)">
                    <text x="629.664px" y="1135.05px" style="font-family:'Alatsi-Regular', 'Alatsi';font-size:90px;fill:white;">C</text>
                </g>
                <g transform="matrix(0.996489,-0.0837216,0.0837216,0.996489,-92.8318,61.2919)">
                    <text x="684.391px" y="1137.52px" style="font-family:'Alatsi-Regular', 'Alatsi';font-size:90px;fill:white;">H</text>
                </g>
                <g transform="matrix(0.973161,-0.230127,0.230127,0.973161,-240.247,203.081)">
                    <text x="750.509px" y="1131.51px" style="font-family:'Alatsi-Regular', 'Alatsi';font-size:90px;fill:white;">K</text>
                </g>
                <g transform="matrix(0.939647,-0.342145,0.342145,0.939647,-333.345,344.409)">
                    <text x="809.571px" y="1117.09px" style="font-family:'Alatsi-Regular', 'Alatsi';font-size:90px;fill:white;">L</text>
                </g>
                <g transform="matrix(0.893489,-0.449086,0.449086,0.893489,-403.463,500.895)">
                    <text x="854.236px" y="1101.01px" style="font-family:'Alatsi-Regular', 'Alatsi';font-size:90px;fill:white;">U</text>
                </g>
                <g transform="matrix(0.822602,-0.568618,0.568618,0.822602,-448.158,707.904)">
                    <text x="910.451px" y="1072.2px" style="font-family:'Alatsi-Regular', 'Alatsi';font-size:90px;fill:white;">B</text>
                </g>
            </g>
            <g transform="matrix(1.14732,0,0,1.11518,-87.0001,-80.0909)">
                <g transform="matrix(0.825748,0,0,0.897734,392.268,388.727)">
                    <path d="M365.448,432.474L365.216,432.474C371.499,426.656 375.496,418.407 375.496,409.168C375.496,391.578 361.234,377.316 343.644,377.316L337.259,377.316C337.259,377.316 322.666,304.511 312.29,252.745C307.77,230.196 311.671,206.861 323.325,186.733C326.154,182.091 327.717,176.636 327.717,170.816C327.717,168.441 327.45,166.131 326.948,163.911C325.426,157.138 319.105,152.295 311.788,152.295C282.673,152.293 197.577,152.293 168.462,152.293C161.144,152.293 154.822,157.137 153.299,163.911C152.8,166.131 152.533,168.441 152.533,170.816C152.533,176.53 154.039,181.892 156.676,186.527C168.425,207.172 172.316,231.011 167.699,254.048C157.341,305.723 142.991,377.316 142.991,377.316L136.606,377.316C119.016,377.316 104.754,391.578 104.754,409.168C104.754,418.407 108.751,426.656 115.034,432.474L114.8,432.474C98.626,432.474 85.508,445.592 85.508,461.767L85.508,474.046C85.508,477.468 88.292,480.252 91.713,480.252L388.536,480.252C391.959,480.252 394.742,477.468 394.742,474.046L394.742,461.767C394.743,445.592 381.624,432.474 365.448,432.474Z" style="fill:rgb(171,49,49);fill-rule:nonzero;"/>
                    <path d="M135.704,369.003C113.804,369.475 95.958,387.159 95.958,409.168C95.958,415.601 97.507,421.65 100.235,427.009C86.479,432.64 76.712,446.018 76.712,461.767L76.712,474.046C76.712,482.182 83.579,488.576 91.713,488.576L388.536,488.576C396.674,488.576 403.538,482.182 403.538,474.046L403.538,461.767C403.539,446.021 393.774,432.644 380.015,427.009C382.743,421.65 384.292,415.601 384.292,409.168C384.292,387.159 366.446,369.475 344.546,369.003L320.932,251.194C316.8,230.577 320.353,209.243 330.984,190.829C334.533,184.968 336.513,178.124 336.513,170.816C336.513,167.843 336.178,164.953 335.55,162.174C333.162,151.56 323.256,143.971 311.788,143.971C282.673,143.969 197.577,143.969 168.462,143.969C156.991,143.969 147.083,151.561 144.696,162.178C144.071,164.956 143.737,167.845 143.737,170.816C143.737,177.966 145.632,184.673 148.932,190.473C148.932,190.473 148.932,190.474 148.932,190.474C159.724,209.438 163.298,231.335 159.057,252.497L135.704,369.003ZM365.448,432.474L365.216,432.474C371.499,426.656 375.496,418.407 375.496,409.168C375.496,391.578 361.234,377.316 343.644,377.316L337.259,377.316C337.259,377.316 322.666,304.511 312.29,252.745C307.77,230.196 311.671,206.861 323.325,186.733C326.154,182.091 327.717,176.636 327.717,170.816C327.717,168.441 327.45,166.131 326.948,163.911C325.426,157.138 319.105,152.295 311.788,152.295C282.673,152.293 197.577,152.293 168.462,152.293C161.144,152.293 154.822,157.137 153.299,163.911C152.8,166.131 152.533,168.441 152.533,170.816C152.533,176.53 154.039,181.892 156.676,186.527C168.425,207.172 172.316,231.011 167.699,254.048C157.341,305.723 142.991,377.316 142.991,377.316L136.606,377.316C119.016,377.316 104.754,391.578 104.754,409.168C104.754,418.407 108.751,426.656 115.034,432.474L114.8,432.474C98.626,432.474 85.508,445.592 85.508,461.767L85.508,474.046C85.508,477.468 88.292,480.252 91.713,480.252L388.536,480.252C391.959,480.252 394.742,477.468 394.742,474.046L394.742,461.767C394.743,445.592 381.624,432.474 365.448,432.474Z" style="fill:rgb(11,0,0);"/>
                    <path d="M365.448,432.474L365.216,432.474C371.499,426.656 375.496,418.407 375.496,409.168C375.496,391.578 361.234,377.316 343.644,377.316L337.259,377.316C337.259,377.316 322.666,304.511 312.29,252.745C307.77,230.196 311.671,206.861 323.325,186.733C326.154,182.091 327.717,176.636 327.717,170.816C327.717,168.441 327.45,166.131 326.948,163.911C325.426,157.138 319.105,152.295 311.788,152.295C282.673,152.293 197.577,152.293 168.462,152.293C161.144,152.293 154.822,157.137 153.299,163.911C152.8,166.131 152.533,168.441 152.533,170.816C152.533,176.53 154.039,181.892 156.676,186.527C168.425,207.172 172.316,231.011 167.699,254.048C157.341,305.723 142.991,377.316 142.991,377.316L136.606,377.316C119.016,377.316 104.754,391.578 104.754,409.168C104.754,418.407 108.751,426.656 115.034,432.474L114.8,432.474C98.626,432.474 85.508,445.592 85.508,461.767L85.508,474.046C85.508,477.468 88.292,480.252 91.713,480.252L388.536,480.252C391.959,480.252 394.742,477.468 394.742,474.046L394.742,461.767C394.743,445.592 381.624,432.474 365.448,432.474Z" style="fill:none;fill-rule:nonzero;stroke:white;stroke-width:5.13px;stroke-linecap:butt;stroke-miterlimit:2;"/>
                </g>
                <g transform="matrix(0.825748,0,0,0.897734,392.268,398.007)">
                    <path d="M369.858,64.538L369.858,6.205C369.858,2.784 365.658,0 360.503,0C343.956,17.949 329.217,17.194 316.068,0C310.889,0 306.707,2.784 306.707,6.205L306.707,47.69C306.707,53.18 302.004,57.631 296.202,57.631C292.62,57.631 288.57,57.631 284.809,57.631C277.572,57.631 271.705,52.079 271.705,45.23C271.705,30.013 271.705,6.205 271.705,6.205C271.705,2.784 267.513,0 262.358,0C247.868,14.035 233.957,12.556 220.384,2.034C217.911,0.114 214.42,-0.104 211.703,1.493C209.782,2.681 208.546,4.349 208.546,6.205L208.546,46.863C208.546,49.719 207.347,52.458 205.213,54.477C203.079,56.496 200.185,57.631 197.167,57.631L182.699,57.631C177.643,57.631 173.544,53.752 173.544,48.968C173.544,34.312 173.544,6.205 173.544,6.205C173.544,2.784 166.19,-3.16 164.181,0C155.772,13.229 126.685,12.983 120.792,3.727C119.851,2.261 118.221,1.314 116.413,1.185C114.606,1.055 112.844,1.758 111.68,3.073C110.861,3.99 110.393,5.062 110.393,6.205L110.393,57.102C110.393,92.358 140.595,120.939 177.851,120.939L310.258,120.939C343.174,120.939 369.858,95.687 369.858,64.538Z" style="fill:rgb(171,49,49);fill-rule:nonzero;"/>
                    <path d="M378.654,6.206L378.654,6.205C378.654,-0.914 371.23,-8.324 360.503,-8.324C357.962,-8.324 355.545,-7.284 353.875,-5.472C347.82,1.096 342.544,4.924 337.13,4.855C332.036,4.79 327.722,1.041 323.194,-4.88C321.539,-7.043 318.889,-8.324 316.068,-8.324C305.293,-8.324 297.911,-0.912 297.911,6.205C297.911,6.205 297.911,47.69 297.911,47.69C297.911,48.583 297.146,49.307 296.202,49.307C296.202,49.307 284.809,49.307 284.809,49.307C282.43,49.307 280.501,47.482 280.501,45.23C280.501,30.013 280.501,6.205 280.501,6.205C280.501,-0.916 273.089,-8.324 262.358,-8.324C259.99,-8.324 257.722,-7.42 256.066,-5.817C250.858,-0.772 245.957,1.853 240.934,1.903C235.819,1.953 230.928,-0.552 225.958,-4.405C220.579,-8.581 212.98,-9.055 207.063,-5.579C207.005,-5.545 206.948,-5.51 206.892,-5.475C202.246,-2.603 199.75,1.716 199.75,6.205L199.75,46.863C199.75,47.511 199.478,48.133 198.993,48.591C198.509,49.05 197.852,49.307 197.167,49.307C197.167,49.307 182.699,49.307 182.699,49.307C182.501,49.307 182.34,49.155 182.34,48.968C182.34,34.312 182.34,6.205 182.34,6.205C182.34,4.41 181.831,2.326 180.658,0.251C179.004,-2.671 175.8,-5.749 172.655,-7.422C165.98,-10.973 159.796,-9.25 156.644,-4.291C155.134,-1.916 152.356,-0.47 149.327,0.525C145.403,1.816 140.952,2.237 136.898,1.927C134.441,1.739 132.133,1.291 130.242,0.52C129.452,0.197 128.673,-0.024 128.326,-0.569C128.32,-0.577 128.315,-0.586 128.31,-0.594C125.896,-4.354 121.715,-6.782 117.079,-7.115C112.443,-7.448 107.923,-5.645 104.937,-2.273C102.747,0.181 101.597,3.118 101.597,6.205L101.597,57.102C101.597,96.955 135.737,129.263 177.851,129.263L310.258,129.263C348.032,129.263 378.654,100.285 378.654,64.538L378.654,6.206ZM369.858,64.538L369.858,6.205C369.858,2.784 365.658,0 360.503,0C343.956,17.949 329.217,17.194 316.068,0C310.889,0 306.707,2.784 306.707,6.205L306.707,47.69C306.707,53.18 302.004,57.631 296.202,57.631C292.62,57.631 288.57,57.631 284.809,57.631C277.572,57.631 271.705,52.079 271.705,45.23C271.705,30.013 271.705,6.205 271.705,6.205C271.705,2.784 267.513,0 262.358,0C247.868,14.035 233.957,12.556 220.384,2.034C217.911,0.114 214.42,-0.104 211.703,1.493C209.782,2.681 208.546,4.349 208.546,6.205L208.546,46.863C208.546,49.719 207.347,52.458 205.213,54.477C203.079,56.496 200.185,57.631 197.167,57.631L182.699,57.631C177.643,57.631 173.544,53.752 173.544,48.968C173.544,34.312 173.544,6.205 173.544,6.205C173.544,2.784 166.19,-3.16 164.181,0C155.772,13.229 126.685,12.983 120.792,3.727C119.851,2.261 118.221,1.314 116.413,1.185C114.606,1.055 112.844,1.758 111.68,3.073C110.861,3.99 110.393,5.062 110.393,6.205L110.393,57.102C110.393,92.358 140.595,120.939 177.851,120.939L310.258,120.939C343.174,120.939 369.858,95.687 369.858,64.538Z"/>
                    <path d="M369.858,64.538L369.858,6.205C369.858,2.784 365.658,0 360.503,0C343.956,17.949 329.217,17.194 316.068,0C310.889,0 306.707,2.784 306.707,6.205L306.707,47.69C306.707,53.18 302.004,57.631 296.202,57.631C292.62,57.631 288.57,57.631 284.809,57.631C277.572,57.631 271.705,52.079 271.705,45.23C271.705,30.013 271.705,6.205 271.705,6.205C271.705,2.784 267.513,0 262.358,0C247.868,14.035 233.957,12.556 220.384,2.034C217.911,0.114 214.42,-0.104 211.703,1.493C209.782,2.681 208.546,4.349 208.546,6.205L208.546,46.863C208.546,49.719 207.347,52.458 205.213,54.477C203.079,56.496 200.185,57.631 197.167,57.631L182.699,57.631C177.643,57.631 173.544,53.752 173.544,48.968C173.544,34.312 173.544,6.205 173.544,6.205C173.544,2.784 166.19,-3.16 164.181,0C155.772,13.229 126.685,12.983 120.792,3.727C119.851,2.261 118.221,1.314 116.413,1.185C114.606,1.055 112.844,1.758 111.68,3.073C110.861,3.99 110.393,5.062 110.393,6.205L110.393,57.102C110.393,92.358 140.595,120.939 177.851,120.939L310.258,120.939C343.174,120.939 369.858,95.687 369.858,64.538Z" style="fill:none;fill-rule:nonzero;stroke:white;stroke-width:5.13px;stroke-linecap:butt;stroke-miterlimit:2;"/>
                </g>
            </g>
            <g transform="matrix(1.019,0,0,1.13222,-41.9736,-15.9972)">
                <text x="123.83px" y="580.836px" style="font-family:'Alatsi-Regular', 'Alatsi';font-size:88px;fill:white;">1<tspan x="152.254px " y="580.836px ">8</tspan></text>
            </g>
            <g transform="matrix(0.985032,0,0,1.13222,886.148,-16.8668)">
                <text x="123.83px" y="580.836px" style="font-family:'Alatsi-Regular', 'Alatsi';font-size:86.85px;fill:white;">7<tspan x="167.863px " y="580.836px ">6</tspan></text>
            </g>
        </g>
    </g>
</svg>
